<svg xmlns="http://www.w3.org/2000/svg" viewBox="0 0 204 52" width="204" height="52">
  <defs>
    <style>
      @font-face {
        font-family: 'Virgil';
        src: url('https://excalidraw.com/Virgil.woff2') format('woff2');
      }
    </style>
  </defs>

  <!-- ── Mark (50×50, 1px inset padding) ────────────────────────────── -->
  <!-- Hand-drawn violet square -->
  <path d="M4.2,1.5 L46.1,1.3 C47.8,1.2 49.1,2.5 49.2,4.2 L49.1,47 C49.1,48.7 47.7,50.1 46,50.2 L4.1,50.1 C2.4,50.1 1,48.7 0.9,47 L1,4.1 C1,2.5 2.5,1.5 4.2,1.5 Z" fill="#7C5CFC"/>

  <!-- K edges -->
  <path d="M13.5,8.5 C13.4,16 13.6,25 13.3,42.8" stroke="#FBF8F2" stroke-width="3.1" stroke-linecap="round" fill="none"/>
  <path d="M13.3,25.6 C17.4,21.8 22,17.7 31.2,10.4" stroke="#FBF8F2" stroke-width="3.1" stroke-linecap="round" fill="none"/>
  <path d="M13.3,25.6 C17.8,29.6 22.5,33.8 31.3,41.2" stroke="#FBF8F2" stroke-width="3.1" stroke-linecap="round" fill="none"/>

  <!-- Graph nodes: 4 lime endpoints -->
  <circle cx="13.5" cy="8.5"  r="2.9" fill="#C8FACD"/>
  <circle cx="13.3" cy="42.8" r="2.9" fill="#C8FACD"/>
  <circle cx="31.2" cy="10.4" r="2.9" fill="#C8FACD"/>
  <circle cx="31.3" cy="41.2" r="2.9" fill="#C8FACD"/>
  <!-- Junction node: cream, larger -->
  <circle cx="13.3" cy="25.6" r="4.4" fill="#FBF8F2"/>

  <!-- ── Wordmark ──────────────────────────────────────────────────────── -->
  <text x="63" y="34"
        font-family="Virgil, ui-monospace, 'Courier New', monospace"
        font-size="26"
        fill="#2E211C">Kronroe</text>

  <!-- ── Tagline ───────────────────────────────────────────────────────── -->
  <text x="64" y="47"
        font-family="ui-monospace, 'SF Mono', 'Courier New', monospace"
        font-size="8.5"
        fill="#8a7d76"
        letter-spacing="2.2">TEMPORAL GRAPH</text>
</svg>
